<svg preserveAspectRatio="none" overflow="visible" style="display: block;" width="15.8738" height="18" viewBox="0 0 15.8738 18" fill="none" xmlns="http://www.w3.org/2000/svg">
<g id="Group">
<path id="Vector" fill-rule="evenodd" clip-rule="evenodd" d="M2.13072e-05 3.69546C1.18585e-05 3.69198 2.38419e-06 3.68848 2.38419e-06 3.68499C2.38419e-06 2.28884 1.22792 1.37993 2.53522 0.857874C3.92424 0.303199 5.81144 -0.000236079 7.93699 1.37813e-07C10.0624 0.000236355 11.9495 0.303671 13.3384 0.858195C14.6434 1.37917 15.8693 2.28552 15.8737 3.67755C15.8738 3.68015 15.8738 3.68276 15.8738 3.68535V14.3151L15.8737 14.3247C15.868 15.7153 14.6428 16.6212 13.3385 17.1421C11.9495 17.6968 10.0623 18.0002 7.9368 18C5.81138 17.9997 3.92424 17.6963 2.53529 17.1418C1.22807 16.6198 2.38419e-06 15.7112 2.38419e-06 14.315L2.13072e-05 14.3087V10.7822L2.38419e-06 10.7718L2.13072e-05 10.7654V7.23899L2.38419e-06 7.22848L2.13072e-05 7.22214V3.69546ZM1.70077 3.68159C1.70304 3.42362 1.964 2.91734 3.16597 2.43735C4.29153 1.98788 5.94756 1.70054 7.9368 1.70076C9.92612 1.70099 11.5822 1.98833 12.7078 2.43773C13.9152 2.91975 14.173 3.42817 14.173 3.68499C14.173 3.94189 13.915 4.45052 12.7077 4.93262C11.5822 5.38209 9.92622 5.66943 7.93699 5.66921C5.94763 5.66899 4.29152 5.38164 3.1659 4.93225C1.96515 4.45285 1.7036 3.94735 1.70078 3.68921V3.68535L1.70077 3.68159ZM14.173 6.11292V7.22209V7.22848C14.173 7.48541 13.915 7.99404 12.7077 8.47611C11.5822 8.92558 9.92622 9.21292 7.93699 9.21273C5.94763 9.21244 4.29152 8.92511 3.1659 8.47573C1.96515 7.9963 1.7036 7.4908 1.70078 7.23266V6.11268C1.96714 6.26493 2.24933 6.39761 2.53529 6.51178C3.92424 7.06631 5.81138 7.36976 7.9368 7.36995C10.0623 7.37023 11.9495 7.06678 13.3385 6.5121C13.6244 6.3979 13.9067 6.26519 14.173 6.11292ZM1.70078 10.7759V9.65615C1.96714 9.80837 2.24933 9.94113 2.53529 10.0553C3.92424 10.6098 5.81138 10.9132 7.9368 10.9135C10.0623 10.9137 11.9495 10.6103 13.3385 10.0555C13.6244 9.94141 13.9067 9.80865 14.173 9.65644V10.7652V10.7718C14.173 11.0287 13.915 11.5373 12.7077 12.0194C11.5822 12.4688 9.92622 12.7562 7.93699 12.756C5.94763 12.7557 4.29152 12.4684 3.1659 12.019C1.96515 11.5396 1.7036 11.0341 1.70078 10.7759ZM13.3385 13.5988C13.6244 13.4847 13.9067 13.3519 14.173 13.1997V14.3085V14.315C14.173 14.5719 13.915 15.0805 12.7077 15.5626C11.5822 16.0121 9.92622 16.2994 7.93699 16.2992C5.94763 16.299 4.29152 16.0116 3.1659 15.5622C1.96411 15.0824 1.70315 14.5765 1.70077 14.3185L1.70078 14.3151V13.1994C1.96714 13.3516 2.24933 13.4844 2.53529 13.5985C3.92424 14.1531 5.81138 14.4565 7.9368 14.4567C10.0623 14.4569 11.9495 14.1535 13.3385 13.5988Z" fill="#858585"/>
</g>
</svg>
