<svg preserveAspectRatio="none" overflow="visible" style="display: block;" width="23.9999" height="24" viewBox="0 0 23.9999 24" fill="none" xmlns="http://www.w3.org/2000/svg">
<g id="Group">
<path id="Vector" d="M17.6323 9.42537C18.0513 8.99246 18.04 8.30183 17.6072 7.8828C17.1742 7.46378 16.4835 7.47504 16.0645 7.90795L10.3968 13.7636L7.93637 11.2148C7.51794 10.7813 6.82732 10.7691 6.39384 11.1875C5.96035 11.6059 5.94816 12.2966 6.36659 12.7301L9.61081 16.091C9.81614 16.3038 10.0992 16.424 10.3949 16.4242C10.6907 16.4245 10.9738 16.3046 11.1795 16.092L17.6323 9.42537Z" fill="#009632"/>
<path id="Vector_2" fill-rule="evenodd" clip-rule="evenodd" d="M11.9999 0C5.37256 0 7.15256e-07 5.37258 7.15256e-07 12C7.15256e-07 18.6274 5.37256 24 11.9999 24C18.6273 24 23.9999 18.6274 23.9999 12C23.9999 5.37258 18.6273 0 11.9999 0ZM2.18181 12C2.18181 6.57756 6.57754 2.18182 11.9999 2.18182C17.4223 2.18182 21.8181 6.57756 21.8181 12C21.8181 17.4224 17.4223 21.8182 11.9999 21.8182C6.57754 21.8182 2.18181 17.4224 2.18181 12Z" fill="#009632"/>
</g>
</svg>
