<svg preserveAspectRatio="none" overflow="visible" style="display: block;" width="19.2769" height="24.3" viewBox="0 0 19.2769 24.3" fill="none" xmlns="http://www.w3.org/2000/svg">
<g id="Group">
<g id="Group_2">
<path id="Vector" d="M8.78532 4.28333C9.2926 4.28333 9.79988 4.28333 10.3533 4.28333C10.4455 4.28333 10.4916 4.28333 10.5839 4.28333C10.8606 4.28333 11.1373 4.01667 11.1373 3.75C11.1373 3.43889 10.9067 3.21667 10.5839 3.21667C10.0766 3.21667 9.5693 3.21667 9.0159 3.21667C8.92366 3.21667 8.87755 3.21667 8.78532 3.21667C8.50862 3.21667 8.23192 3.48333 8.23192 3.75C8.23192 4.01667 8.4625 4.28333 8.78532 4.28333Z" fill="#3694AB" stroke="#3694AB" stroke-width="0.3"/>
<path id="Vector_2" d="M9.10813 2.90556C9.10813 3.39444 9.10813 3.88333 9.10813 4.41667C9.10813 4.50556 9.10813 4.55 9.10813 4.63889C9.10813 4.90556 9.38483 5.17222 9.66153 5.17222C9.98434 5.17222 10.2149 4.95 10.2149 4.63889C10.2149 4.15 10.2149 3.66111 10.2149 3.12778C10.2149 3.03889 10.2149 2.99444 10.2149 2.90556C10.2149 2.63889 9.93823 2.37222 9.66153 2.37222C9.33871 2.37222 9.10813 2.59444 9.10813 2.90556Z" fill="#3694AB" stroke="#3694AB" stroke-width="0.3"/>
</g>
<path id="Vector_3" d="M16.3484 22.8167C12.4746 22.8167 8.55473 22.8167 4.68095 22.8167C4.12755 22.8167 3.57415 22.8167 3.02075 22.8167C3.25133 23.0389 3.48192 23.2611 3.7125 23.4833C3.7125 18.55 3.7125 13.6167 3.7125 8.68333C3.7125 7.97222 3.7125 7.30556 3.7125 6.59444C3.48192 6.81667 3.25133 7.03889 3.02075 7.26111C6.89454 7.26111 10.8144 7.26111 14.6882 7.26111C15.2416 7.26111 15.795 7.26111 16.3484 7.26111C16.1178 7.03889 15.8873 6.81667 15.6567 6.59444C15.6567 11.5278 15.6567 16.4611 15.6567 21.3944C15.6567 22.1056 15.6567 22.7722 15.6567 23.4833C15.6567 24.3278 17.0402 24.3278 17.0402 23.4833C17.0402 18.55 17.0402 13.6167 17.0402 8.68333C17.0402 7.97222 17.0402 7.30556 17.0402 6.59444C17.0402 6.23889 16.7174 5.92778 16.3484 5.92778C12.4746 5.92778 8.55473 5.92778 4.68095 5.92778C4.12755 5.92778 3.57415 5.92778 3.02075 5.92778C2.65182 5.92778 2.329 6.23889 2.329 6.59444C2.329 11.5278 2.329 16.4611 2.329 21.3944C2.329 22.1056 2.329 22.7722 2.329 23.4833C2.329 23.8389 2.65182 24.15 3.02075 24.15C6.89454 24.15 10.8144 24.15 14.6882 24.15C15.2416 24.15 15.795 24.15 16.3484 24.15C17.2246 24.15 17.2246 22.8167 16.3484 22.8167Z" fill="#3694AB" stroke="#3694AB" stroke-width="0.3"/>
<path id="Vector_4" d="M12.613 5.88333C10.8606 5.88333 9.15425 5.88333 7.40182 5.88333C7.17124 5.88333 6.89454 5.88333 6.66396 5.88333C6.89454 6.10556 7.12512 6.32778 7.3557 6.55C7.3557 4.86111 7.3557 3.21667 7.3557 1.52778C7.3557 1.30556 7.3557 1.03889 7.3557 0.816667C7.12512 1.03889 6.89454 1.26111 6.66396 1.48333C8.41638 1.48333 10.1227 1.48333 11.8751 1.48333C12.1518 1.48333 12.3824 1.48333 12.613 1.48333C12.3824 1.26111 12.1518 1.03889 11.9212 0.816667C11.9212 2.50556 11.9212 4.15 11.9212 5.83889C11.9212 6.06111 11.9212 6.32778 11.9212 6.55C11.9212 7.39444 13.3047 7.39444 13.3047 6.55C13.3047 4.86111 13.3047 3.21667 13.3047 1.52778C13.3047 1.30556 13.3047 1.03889 13.3047 0.816667C13.3047 0.461111 12.9819 0.15 12.613 0.15C10.8606 0.15 9.15425 0.15 7.40182 0.15C7.17124 0.15 6.89454 0.15 6.66396 0.15C6.29502 0.15 5.97221 0.461111 5.97221 0.816667C5.97221 2.50556 5.97221 4.15 5.97221 5.83889C5.97221 6.06111 5.97221 6.32778 5.97221 6.55C5.97221 6.90556 6.29502 7.21667 6.66396 7.21667C8.41638 7.21667 10.1227 7.21667 11.8751 7.21667C12.1057 7.21667 12.3824 7.21667 12.613 7.21667C13.5353 7.21667 13.5353 5.88333 12.613 5.88333Z" fill="#3694AB" stroke="#3694AB" stroke-width="0.3"/>
<path id="Vector_5" d="M0.80716 24.15C5.97221 24.15 11.0911 24.15 16.2562 24.15C16.9941 24.15 17.7319 24.15 18.4698 24.15C19.346 24.15 19.346 22.8167 18.4698 22.8167C13.3047 22.8167 8.1858 22.8167 3.02075 22.8167C2.28289 22.8167 1.54502 22.8167 0.80716 22.8167C-0.0690534 22.8167 -0.0690534 24.15 0.80716 24.15Z" fill="#3694AB" stroke="#3694AB" stroke-width="0.3"/>
<path id="Vector_6" d="M11.3217 22.55C10.2149 22.55 9.10813 22.55 7.95522 22.55C8.1858 22.7722 8.41638 22.9944 8.64697 23.2167C8.64697 21.7944 8.64697 20.3722 8.64697 18.9056C8.64697 18.6833 8.64697 18.5056 8.64697 18.2833C8.41638 18.5056 8.1858 18.7278 7.95522 18.95C9.06201 18.95 10.1688 18.95 11.3217 18.95C11.0911 18.7278 10.8606 18.5056 10.63 18.2833C10.63 19.7056 10.63 21.1278 10.63 22.5944C10.63 22.8167 10.63 22.9944 10.63 23.2167C10.63 24.0611 12.0135 24.0611 12.0135 23.2167C12.0135 21.7944 12.0135 20.3722 12.0135 18.9056C12.0135 18.6833 12.0135 18.5056 12.0135 18.2833C12.0135 17.9278 11.6907 17.6167 11.3217 17.6167C10.2149 17.6167 9.10813 17.6167 7.95522 17.6167C7.58629 17.6167 7.26347 17.9278 7.26347 18.2833C7.26347 19.7056 7.26347 21.1278 7.26347 22.5944C7.26347 22.8167 7.26347 22.9944 7.26347 23.2167C7.26347 23.5722 7.58629 23.8833 7.95522 23.8833C9.06201 23.8833 10.1688 23.8833 11.3217 23.8833C12.1979 23.8833 12.1979 22.55 11.3217 22.55Z" fill="#3694AB" stroke="#3694AB" stroke-width="0.3"/>
<g id="Group_3">
<path id="Vector_7" d="M5.14211 9.88333C5.14211 10.2389 5.14211 10.5944 5.14211 10.95C5.14211 10.9944 5.14211 11.0389 5.14211 11.0833C5.14211 11.2611 5.23434 11.4389 5.32658 11.5722C5.46493 11.7056 5.64939 11.7944 5.83386 11.75C6.01833 11.75 6.20279 11.7056 6.34114 11.5722C6.47949 11.4389 6.52561 11.2611 6.52561 11.0833C6.52561 10.7278 6.52561 10.3722 6.52561 10.0167C6.52561 9.97222 6.52561 9.92778 6.52561 9.88333C6.52561 9.70556 6.43337 9.52778 6.34114 9.39444C6.20279 9.26111 6.01833 9.17222 5.83386 9.21667C5.64939 9.21667 5.46493 9.26111 5.32658 9.39444C5.23434 9.52778 5.14211 9.66111 5.14211 9.88333Z" fill="#3694AB" stroke="#3694AB" stroke-width="0.3"/>
<path id="Vector_8" d="M8.96978 9.88333C8.96978 10.2389 8.96978 10.5944 8.96978 10.95C8.96978 10.9944 8.96978 11.0389 8.96978 11.0833C8.96978 11.2611 9.06201 11.4389 9.15425 11.5722C9.2926 11.7056 9.47706 11.7944 9.66153 11.75C9.84599 11.75 10.0305 11.7056 10.1688 11.5722C10.3072 11.4389 10.3533 11.2611 10.3533 11.0833C10.3533 10.7278 10.3533 10.3722 10.3533 10.0167C10.3533 9.97222 10.3533 9.92778 10.3533 9.88333C10.3533 9.70556 10.261 9.52778 10.1688 9.39444C10.0305 9.26111 9.84599 9.17222 9.66153 9.21667C9.47706 9.21667 9.2926 9.26111 9.15425 9.39444C9.06201 9.52778 8.96978 9.66111 8.96978 9.88333Z" fill="#3694AB" stroke="#3694AB" stroke-width="0.3"/>
<path id="Vector_9" d="M12.7975 9.88333C12.7975 10.2389 12.7975 10.5944 12.7975 10.95C12.7975 10.9944 12.7975 11.0389 12.7975 11.0833C12.7975 11.2611 12.8897 11.4389 12.9819 11.5722C13.1203 11.7056 13.3047 11.7944 13.4892 11.75C13.6737 11.75 13.8581 11.7056 13.9965 11.5722C14.1348 11.4389 14.1809 11.2611 14.1809 11.0833C14.1809 10.7278 14.1809 10.3722 14.1809 10.0167C14.1809 9.97222 14.1809 9.92778 14.1809 9.88333C14.1809 9.70556 14.0887 9.52778 13.9965 9.39444C13.8581 9.26111 13.6737 9.17222 13.4892 9.21667C13.3047 9.21667 13.1203 9.26111 12.9819 9.39444C12.8897 9.52778 12.7975 9.66111 12.7975 9.88333Z" fill="#3694AB" stroke="#3694AB" stroke-width="0.3"/>
</g>
<g id="Group_4">
<path id="Vector_10" d="M5.14211 13.35C5.14211 13.7056 5.14211 14.0611 5.14211 14.4167C5.14211 14.4611 5.14211 14.5056 5.14211 14.55C5.14211 14.7278 5.23434 14.9056 5.32658 15.0389C5.46493 15.1722 5.64939 15.2611 5.83386 15.2167C6.01833 15.2167 6.20279 15.1722 6.34114 15.0389C6.47949 14.9056 6.52561 14.7278 6.52561 14.55C6.52561 14.1944 6.52561 13.8389 6.52561 13.4833C6.52561 13.4389 6.52561 13.3944 6.52561 13.35C6.52561 13.1722 6.43337 12.9944 6.34114 12.8611C6.20279 12.7278 6.01833 12.6389 5.83386 12.6833C5.64939 12.6833 5.46493 12.7278 5.32658 12.8611C5.23434 12.9944 5.14211 13.1722 5.14211 13.35Z" fill="#3694AB" stroke="#3694AB" stroke-width="0.3"/>
<path id="Vector_11" d="M8.96978 13.35C8.96978 13.7056 8.96978 14.0611 8.96978 14.4167C8.96978 14.4611 8.96978 14.5056 8.96978 14.55C8.96978 14.7278 9.06201 14.9056 9.15425 15.0389C9.2926 15.1722 9.47706 15.2611 9.66153 15.2167C9.84599 15.2167 10.0305 15.1722 10.1688 15.0389C10.3072 14.9056 10.3533 14.7278 10.3533 14.55C10.3533 14.1944 10.3533 13.8389 10.3533 13.4833C10.3533 13.4389 10.3533 13.3944 10.3533 13.35C10.3533 13.1722 10.261 12.9944 10.1688 12.8611C10.0305 12.7278 9.84599 12.6389 9.66153 12.6833C9.47706 12.6833 9.2926 12.7278 9.15425 12.8611C9.06201 12.9944 8.96978 13.1722 8.96978 13.35Z" fill="#3694AB" stroke="#3694AB" stroke-width="0.3"/>
<path id="Vector_12" d="M12.7975 13.35C12.7975 13.7056 12.7975 14.0611 12.7975 14.4167C12.7975 14.4611 12.7975 14.5056 12.7975 14.55C12.7975 14.7278 12.8897 14.9056 12.9819 15.0389C13.1203 15.1722 13.3047 15.2611 13.4892 15.2167C13.6737 15.2167 13.8581 15.1722 13.9965 15.0389C14.1348 14.9056 14.1809 14.7278 14.1809 14.55C14.1809 14.1944 14.1809 13.8389 14.1809 13.4833C14.1809 13.4389 14.1809 13.3944 14.1809 13.35C14.1809 13.1722 14.0887 12.9944 13.9965 12.8611C13.8581 12.7278 13.6737 12.6389 13.4892 12.6833C13.3047 12.6833 13.1203 12.7278 12.9819 12.8611C12.8897 12.9944 12.7975 13.1722 12.7975 13.35Z" fill="#3694AB" stroke="#3694AB" stroke-width="0.3"/>
</g>
</g>
</svg>
